<svg width="16" height="16" viewBox="0 0 16 16" fill="none" xmlns="http://www.w3.org/2000/svg">
<path d="M11.5669 4.32915H14.6497C15.3885 4.32915 16 4.8424 16 5.51186V9.57322H8.66242V4.8424C8.40764 4.77545 8.17834 4.68619 8.02548 4.5523C8 4.5523 8 4.52999 7.97452 4.52999C7.97452 4.52999 7.97452 4.5523 7.94904 4.5523C7.7707 4.68619 7.56688 4.77545 7.33758 4.8424V9.57322H0V5.51186C0 4.8424 0.585987 4.32915 1.32484 4.32915H4.43312C4.07643 4.17294 3.74522 3.94979 3.46497 3.74895C2.24204 2.72245 2.01274 1.29428 2.98089 0.490934C3.38854 0.178522 3.92357 0 4.50955 0C5.35032 0 6.21656 0.290098 6.95541 0.892608C7.36306 1.22734 7.74522 1.69596 7.97452 2.14226C8.2293 1.69596 8.61147 1.22734 9.01911 0.892608C9.73248 0.290098 10.6497 0 11.465 0C12.0764 0 12.6115 0.178522 12.9936 0.490934C13.9618 1.29428 13.7325 2.72245 12.4841 3.74895C12.2293 3.94979 11.8981 4.17294 11.5669 4.32915ZM7.03185 3.68201C7.13376 3.48117 6.87898 2.45467 6.03822 1.7629C5.6051 1.40586 5.01911 1.20502 4.50955 1.20502C4.35669 1.20502 4.10191 1.22734 3.92357 1.36123C3.87261 1.40586 3.71975 1.49512 3.71975 1.74059C3.71975 2.03068 3.92357 2.47699 4.40764 2.85635C5.01911 3.3696 5.98726 3.72664 6.70064 3.72664C6.92994 3.72664 7.03185 3.68201 7.03185 3.68201ZM8.96815 3.68201C8.96815 3.68201 9.09554 3.72664 9.29936 3.72664C10.0127 3.72664 10.9809 3.3696 11.5924 2.85635C12.0764 2.47699 12.2293 2.03068 12.2293 1.74059C12.2293 1.49512 12.1019 1.40586 12.0764 1.36123C11.8981 1.22734 11.6178 1.20502 11.465 1.20502C10.9809 1.20502 10.3694 1.40586 9.93631 1.7629C9.12102 2.45467 8.84076 3.45886 8.96815 3.70432V3.68201ZM7.33758 16H1.32484C0.585987 16 0 15.4868 0 14.8396V10.7559H7.33758V16ZM14.6497 16H8.66242V10.7559H16V14.8396C16 15.4868 15.3885 16 14.6497 16Z" fill="#983724"/>
</svg>
